Patient4_TMGait_0pt7_01_right_07_GRF.mot
version=1
nRows=39
nColumns=19
inDegrees=no
endheader
time	F1x	F1y	F1z	M1x	M1y	M1z	F2x	F2y	F2z	M2x	M2y	M2z	EC1x	EC1y	EC1z	EC2x	EC2y	EC2z
7.53	10.5191	740.2806	60.9572	-291.1578	-52.4764	721.1602	-6.7687	-4.2947	2.3007	-1.444	-2.6657	-0.011252	-0.0592	0.0182	-0.0073	-0.0462	0.0165	0.9585
7.5412	10.9653	741.5018	60.8535	-290.9004	-52.4432	722.1695	-4.5508	-1.591	1.4605	-0.49273	-1.6464	1.4262	-0.0592	0.0182	-0.0073	-0.0462	0.0165	0.9585
7.5524	11.5677	742.818	60.6951	-290.7089	-52.1993	722.4804	-2.7431	0.73624	0.77589	0.32116	-0.80159	2.717	-0.0592	0.0182	-0.0073	-0.0462	0.0165	0.9585
7.5636	12.2868	744.0379	60.4847	-290.5511	-51.7455	721.9189	-1.4071	2.5614	0.26715	0.95852	-0.16504	3.7662	-0.0592	0.0182	-0.0073	-0.0462	0.0165	0.9585
7.5749	13.0968	744.9714	60.217	-290.3668	-51.0972	720.3934	-0.5322	3.8817	-0.078718	1.4201	0.27742	4.5568	-0.0592	0.0182	-0.0073	-0.0462	0.0165	0.9585
7.5861	13.9654	745.5041	59.898	-290.1027	-50.2922	717.951	-0.028518	4.7324	-0.29434	1.7204	0.56217	5.0722	-0.0592	0.0182	-0.0073	-0.0462	0.0165	0.9585
7.5973	14.9089	745.64	59.5366	-289.7445	-49.3641	714.7537	0.17026	5.1791	-0.41798	1.8801	0.74046	5.3275	-0.0592	0.0182	-0.0073	-0.0462	0.0165	0.9585
7.6085	15.9227	745.4982	59.1411	-289.3222	-48.3466	711.0473	0.16956	5.2442	-0.48521	1.9075	0.84835	5.2791	-0.0592	0.0182	-0.0073	-0.0462	0.0165	0.9585
7.6197	17.0459	745.3061	58.7264	-288.9059	-47.2642	707.16	0.020109	4.9337	-0.53195	1.8001	0.93285	4.8902	-0.0592	0.0182	-0.0073	-0.0462	0.0165	0.9585
7.6309	18.2891	745.3268	58.2977	-288.5804	-46.1328	703.428	-0.1794	4.179	-0.58082	1.5348	1.0157	4.0281	-0.0592	0.0182	-0.0073	-0.0462	0.0165	0.9585
7.6421	19.6645	745.7762	57.8654	-288.4145	-44.9674	700.1216	-0.39841	2.9083	-0.64154	1.0818	1.1119	2.6013	-0.0592	0.0182	-0.0073	-0.0462	0.0165	0.9585
7.6534	21.1858	746.7634	57.442	-288.4359	-43.7768	697.3911	-0.55295	0.99739	-0.70769	0.3979	1.1981	0.43151	-0.0592	0.0182	-0.0073	-0.0462	0.0165	0.9585
7.6646	22.8556	748.2279	57.0465	-288.6066	-42.5732	695.2003	-0.62532	-1.6036	-0.77383	-0.53813	1.256	-2.5346	-0.0592	0.0182	-0.0073	-0.0462	0.0165	0.9585
7.6758	24.6727	749.9117	56.7083	-288.8111	-41.3756	693.3392	-0.52127	-4.8822	-0.81607	-1.7175	1.2247	-6.2997	-0.0592	0.0182	-0.0073	-0.0462	0.0165	0.9585
7.687	26.617	751.3778	56.4931	-288.861	-40.2388	691.4207	-0.20506	-8.5841	-0.79654	-3.0478	1.0391	-10.5565	-0.0592	0.0182	-0.0073	-0.0462	0.0165	0.9585
7.6982	28.6439	752.1024	56.4552	-288.5344	-39.2161	688.97	0.43716	-12.1781	-0.66583	-4.3298	0.60421	-14.7131	-0.0592	0.0182	-0.0073	-0.0462	0.0165	0.9585
7.7094	30.7353	751.6227	56.6675	-287.634	-38.3742	685.5484	1.4561	-14.6266	-0.34606	-5.1876	-0.18304	-17.549	-0.0592	0.0182	-0.0073	-0.0462	0.0165	0.9585
7.7206	32.8807	749.6411	57.1506	-286.0355	-37.7346	680.8512	2.9358	-14.3607	0.24402	-5.0465	-1.4338	-17.2534	-0.0592	0.0182	-0.0073	-0.0462	0.0165	0.9585
7.7319	35.102	746.0528	57.8954	-283.6994	-37.281	674.747	4.846	-9.091	1.193	-3.0807	-3.226	-11.1504	-0.0592	0.0182	-0.0073	-0.0462	0.0165	0.9585
7.7431	37.4526	740.7939	58.8049	-280.6243	-36.9146	667.1513	7.0955	4.064	2.5632	1.7536	-5.5766	4.0859	-0.0592	0.0182	-0.0073	-0.0462	0.0165	0.9585
7.7543	39.9974	733.7154	59.7054	-276.794	-36.4696	657.9124	9.3377	28.4781	4.3505	10.6641	-8.3377	32.4007	-0.0592	0.0182	-0.0073	-0.0462	0.0165	0.9585
7.7655	42.767	724.3714	60.335	-272.1	-35.7206	646.6507	11.0139	67.4001	6.4438	24.8103	-11.1502	77.5777	-0.0592	0.0182	-0.0073	-0.0462	0.0165	0.9585
7.7767	45.6959	711.8684	60.3754	-266.28	-34.4248	632.6101	11.1468	123.1379	8.5584	44.991	-13.3134	142.3443	-0.0592	0.0182	-0.0073	-0.0462	0.0165	0.9585
7.7879	48.5953	694.8069	59.4641	-258.8894	-32.3482	614.6462	8.4081	195.5116	10.1637	71.095	-13.711	226.5012	-0.0592	0.0182	-0.0073	-0.0462	0.0165	0.9585
7.7991	51.1446	671.3797	57.2742	-249.3281	-29.3417	591.3025	1.0748	279.9623	10.4	101.4078	-10.7378	324.7999	-0.0592	0.0182	-0.0073	-0.0462	0.0165	0.9585
7.8104	52.8663	639.6885	53.5778	-236.9468	-25.4002	561.0708	-11.6387	366.0484	8.0544	132.0795	-2.7884	425.134	-0.0592	0.0182	-0.0073	-0.0462	0.0165	0.9585
7.8216	53.263	598.3064	48.3841	-221.2443	-20.7386	522.8442	-26.9031	440.2381	1.6873	158.1854	10.5682	511.6658	-0.0592	0.0182	-0.0073	-0.0462	0.0165	0.9585
7.8328	51.9217	547.0163	41.9936	-202.1158	-15.78	476.5271	-40.435	494.5218	-8.1161	176.8311	27.0061	574.6645	-0.0592	0.0182	-0.0073	-0.0462	0.0165	0.9585
7.844	48.6417	487.0477	35.0044	-179.9445	-11.0949	423.2436	-50.2501	528.2652	-19.5923	187.8512	43.7916	613.0665	-0.0592	0.0182	-0.0073	-0.0462	0.0165	0.9585
7.8552	43.5859	420.7525	28.1977	-155.5147	-7.2688	364.9934	-55.4992	546.2467	-31.6098	193.0354	59.2421	632.2676	-0.0592	0.0182	-0.0073	-0.0462	0.0165	0.9585
7.8664	37.0475	351.3871	22.0803	-129.9537	-4.5931	304.5365	-56.6493	555.1394	-41.9819	194.9136	71.1983	640.0755	-0.0592	0.0182	-0.0073	-0.0462	0.0165	0.9585
7.8776	29.5094	282.6303	16.9712	-104.5771	-3.1539	244.9341	-54.8228	560.7461	-50.4952	195.6518	79.7527	643.4003	-0.0592	0.0182	-0.0073	-0.0462	0.0165	0.9585
7.8889	21.5536	218.1929	12.9012	-80.739	-2.7503	189.3011	-51.228	567.8477	-56.3594	197.0283	84.6061	647.789	-0.0592	0.0182	-0.0073	-0.0462	0.0165	0.9585
7.9001	13.933	161.1225	9.7822	-59.5791	-3.0217	140.1156	-46.7326	579.2588	-60.4459	200.0534	87.036	656.5267	-0.0592	0.0182	-0.0073	-0.0462	0.0165	0.9585
7.9113	7.3189	113.2761	7.4691	-41.8039	-3.5875	98.9101	-41.8613	596.3486	-63.393	205.1885	88.0048	671.1962	-0.0592	0.0182	-0.0073	-0.0462	0.0165	0.9585
7.9225	2.1386	75.098	5.7143	-27.6146	-4.0716	65.9847	-36.9462	618.3715	-66.0652	212.1503	88.6283	690.9413	-0.0592	0.0182	-0.0073	-0.0462	0.0165	0.9585
7.9337	-1.4762	46.1252	4.3553	-16.8509	-4.2902	40.9638	-32.5721	643.5826	-69.1238	220.3136	89.8136	713.9609	-0.0592	0.0182	-0.0073	-0.0462	0.0165	0.9585
7.9449	-3.5405	25.2304	3.2016	-9.1129	-4.0934	22.8793	-28.8723	670.231	-72.3219	229.0938	91.43	738.2743	-0.0592	0.0182	-0.0073	-0.0462	0.0165	0.9585
7.9561	-4.2457	11.184	2.2035	-3.9344	-3.5198	10.6912	-26.2268	696.8717	-75.6935	238.0107	93.6027	762.4268	-0.0592	0.0182	-0.0073	-0.0462	0.0165	0.9585
